<svg xmlns="http://www.w3.org/2000/svg" width="674.736" height="594.705" viewBox="0 0 674.736 594.705">
  <g id="Group_233173" data-name="Group 233173" transform="translate(4593 14180)">
    <path id="Path_665615" data-name="Path 665615" d="M-580.419.189q-4.63,0-5.2-1.985l-14.931-60.669a4.541,4.541,0,0,1-.189-1.418q0-2.457,5.859-2.457h2.457q5.67,0,6.332,2.93L-579-32.98l1.89,8.6q.284,1.607,1.039,5.009.473-2.929,1.276-6.1t1.087-4.205q.189-.85.425-1.7t.425-1.606l7.749-31.374a2.168,2.168,0,0,1,1.559-1.559,12.06,12.06,0,0,1,3.638-.425h3.591a12.06,12.06,0,0,1,3.638.425,2.168,2.168,0,0,1,1.559,1.559l7.466,31.374q1.606,6.9,3.213,14.269l1.89-8.316,1.323-5.953,7.371-30.429q.661-2.93,6.331-2.93h1.039q5.859,0,5.859,2.457a4.541,4.541,0,0,1-.189,1.418L-532.224-1.8q-.189.945-1.654,1.465a10.648,10.648,0,0,1-3.544.52h-6.9a10.648,10.648,0,0,1-3.544-.52q-1.465-.52-1.654-1.465l-7.749-32.7-1.512-6.426-1.607,6.426-8.033,32.7q-.189.945-1.654,1.465a10.648,10.648,0,0,1-3.544.52Zm98,.567q-14.647,0-22.491-8.741t-7.844-25.09q0-16.348,7.844-25.09t22.491-8.741q14.647,0,22.444,8.741t7.8,25.09q0,16.349-7.8,25.09T-482.423.756Zm0-12.379q7.56,0,11.435-5.481t3.874-15.97q0-10.489-3.874-15.923t-11.435-5.434q-7.56,0-11.482,5.434t-3.922,15.923q0,10.49,3.922,15.97T-482.423-11.623ZM-427.991.189q-4.631,0-5.2-1.985l-14.931-60.669a4.54,4.54,0,0,1-.189-1.418q0-2.457,5.859-2.457h2.457q5.67,0,6.332,2.93l7.087,30.429,1.89,8.6q.283,1.607,1.039,5.009.473-2.929,1.276-6.1t1.087-4.205q.189-.85.425-1.7t.425-1.606l7.749-31.374a2.168,2.168,0,0,1,1.559-1.559,12.06,12.06,0,0,1,3.638-.425h3.591a12.06,12.06,0,0,1,3.638.425,2.168,2.168,0,0,1,1.559,1.559l7.466,31.374q1.606,6.9,3.213,14.269l1.89-8.316,1.323-5.953,7.371-30.429q.662-2.93,6.331-2.93h1.04q5.859,0,5.859,2.457a4.54,4.54,0,0,1-.189,1.418L-379.8-1.8q-.189.945-1.654,1.465a10.648,10.648,0,0,1-3.544.52h-6.9a10.648,10.648,0,0,1-3.544-.52q-1.465-.52-1.654-1.465l-7.749-32.7-1.512-6.426-1.606,6.426-8.033,32.7q-.189.945-1.654,1.465a10.648,10.648,0,0,1-3.544.52ZM-311-36.761a3.95,3.95,0,0,1,2.882.9,3.95,3.95,0,0,1,.9,2.882V-6.71q0,4.253-7.087,5.859A67.377,67.377,0,0,1-329.238.756q-15.876,0-23.483-8.269t-7.607-25.751q0-33.642,31.563-33.642a51.225,51.225,0,0,1,9.072.85,32.142,32.142,0,0,1,7.938,2.363q3.213,1.512,3.213,3.4a8.411,8.411,0,0,1-1.04,3.449,16.774,16.774,0,0,1-2.5,3.78,3.92,3.92,0,0,1-2.6,1.654,13.9,13.9,0,0,1-2.362-.851,31.637,31.637,0,0,0-5.056-1.512,32.3,32.3,0,0,0-6.946-.662q-8.316,0-12.332,5.292T-345.4-33.17q0,21.546,16.159,21.546a40.607,40.607,0,0,0,7.371-.662v-12h-8.316a2.319,2.319,0,0,1-2.173-1.134,7.409,7.409,0,0,1-.662-3.591v-3.024a7.409,7.409,0,0,1,.662-3.591,2.319,2.319,0,0,1,2.173-1.134ZM-295.313.189q-5.764,0-5.764-2.079a8.513,8.513,0,0,1,.378-1.7l20.79-60.764q.756-1.984,5.387-1.984h4.914q4.725,0,5.387,1.984l20.79,60.764a5.986,5.986,0,0,1,.283,1.7q0,2.079-4.725,2.079h-4.158q-4.63,0-5.292-1.985l-3.78-11.529h-22.3L-287.186-1.8q-.662,1.985-4.347,1.985ZM-265.167-25.8l-5.387-16.821a43.935,43.935,0,0,1-1.417-6.048h-.378q-.094.567-.425,2.5a16.645,16.645,0,0,1-.992,3.544L-279.342-25.8ZM-237.384.189q-5.765,0-5.764-2.079a8.512,8.512,0,0,1,.378-1.7l20.79-60.764q.756-1.984,5.387-1.984h4.914q4.725,0,5.387,1.984L-185.5-3.591a5.986,5.986,0,0,1,.283,1.7q0,2.079-4.725,2.079H-194.1q-4.63,0-5.292-1.985l-3.78-11.529h-22.3L-229.257-1.8Q-229.919.189-233.6.189ZM-207.239-25.8l-5.387-16.821a43.937,43.937,0,0,1-1.417-6.048h-.378q-.095.567-.425,2.5a16.645,16.645,0,0,1-.992,3.544L-221.414-25.8ZM-149.877.756q-15.876,0-23.483-8.269t-7.607-25.751q0-33.642,31.563-33.642a48.626,48.626,0,0,1,9.639.992,25.344,25.344,0,0,1,7.655,2.6q2.457,1.417,2.457,3.024a8.411,8.411,0,0,1-1.039,3.449,16.775,16.775,0,0,1-2.5,3.78,3.92,3.92,0,0,1-2.6,1.654,12.523,12.523,0,0,1-2.268-.851,29.222,29.222,0,0,0-4.82-1.512,30.332,30.332,0,0,0-6.8-.662q-8.316,0-12.332,5.292t-4.016,15.971q0,21.546,16.16,21.546a28.224,28.224,0,0,0,7.371-.851,40.67,40.67,0,0,0,6.048-2.174,5.945,5.945,0,0,1,2.079-.756,3.529,3.529,0,0,1,2.693,1.606,14.207,14.207,0,0,1,2.079,3.638,9.318,9.318,0,0,1,.8,2.977q0,2.457-3.307,4.347a25.41,25.41,0,0,1-8.222,2.693A55.261,55.261,0,0,1-149.877.756Zm57.739,0q-14.648,0-22.491-8.741t-7.843-25.09q0-16.348,7.843-25.09t22.491-8.741q14.647,0,22.444,8.741t7.8,25.09q0,16.349-7.8,25.09T-92.138.756Zm0-12.379q7.56,0,11.434-5.481t3.874-15.97q0-10.489-3.874-15.923t-11.434-5.434q-7.56,0-11.482,5.434t-3.922,15.923q0,10.49,3.922,15.97T-92.138-11.623ZM-45.455.189q-5.67,0-5.67-3.024V-62.37a3.95,3.95,0,0,1,.9-2.882,3.95,3.95,0,0,1,2.882-.9h18.428q23.531,0,23.531,17.766A14.808,14.808,0,0,1-8.363-39.17a17.482,17.482,0,0,1-8.08,5.812v.378a8.854,8.854,0,0,1,3.685,3.166,24.326,24.326,0,0,1,3.118,5.528L-1.323-3.5A5.761,5.761,0,0,1-.851-1.7q0,.851-1.417,1.37a13.1,13.1,0,0,1-4.253.52H-10.4q-4.631,0-5.481-1.985l-7.466-18.428a11.8,11.8,0,0,0-3.449-4.394q-1.843-1.276-6.1-1.276h-3.686V-2.835q0,3.024-5.67,3.024Zm17.861-38.651a6.727,6.727,0,0,0,5.1-2.362,8.2,8.2,0,0,0,2.174-5.764,6.744,6.744,0,0,0-2.126-5.245,8.3,8.3,0,0,0-5.812-1.937h-8.316v15.309Z" transform="translate(-3955.264 -13638.5)" fill="#db7803"/>
    <g id="Group_233169" data-name="Group 233169" transform="translate(-5697.97 -15535.113)">
      <g id="Group_233165" data-name="Group 233165" transform="translate(1104.97 1355.113)">
        <g id="Group_233162" data-name="Group 233162" transform="translate(0)">
          <path id="Path_665607" data-name="Path 665607" d="M1312.793,1541.146a111.819,111.819,0,0,1,43.061-26.856l-51.118-159.178h-101.3l79.268,241.249A112.264,112.264,0,0,1,1312.793,1541.146Z" transform="translate(-1203.434 -1355.113)" fill="#556c26"/>
          <path id="Path_665608" data-name="Path 665608" d="M1695.891,2702.485,1683.76,2717.4l13.705,41.712H1801.78l25.739-76.729A112.951,112.951,0,0,1,1695.891,2702.485Z" transform="translate(-1558.779 -2337.026)" fill="#556c26"/>
          <path id="Path_665609" data-name="Path 665609" d="M2468.863,1355.113l-98.287,299.08-96.476-299.08h-90.446l-55.435,165.3a112.147,112.147,0,0,1,60.094,84.711l38.15-113.732,92.86,285.811h104.919l138.083-422.087Z" transform="translate(-1887.589 -1355.113)" fill="#556c26"/>
        </g>
        <g id="Group_233164" data-name="Group 233164" transform="translate(33.363 143.766)">
          <path id="Path_665610" data-name="Path 665610" d="M1414.468,2558.354l-78.881,64.995c-5.019,4.135-5.311,11.554-.443,16.4L1359.4,2663.9c4.874,4.852,12.3,4.518,16.406-.533l64.487-79.3Z" transform="translate(-1331.652 -2389.035)" fill="#556c26"/>
          <circle id="Ellipse_23227" data-name="Ellipse 23227" cx="86.107" cy="86.107" r="86.107" transform="translate(34.08 121.774) rotate(-45)" fill="#db7803"/>
          <path id="Path_665611" data-name="Path 665611" d="M1812.434,2242.324a85.565,85.565,0,0,0-8.649-129.007,86.01,86.01,0,0,1-115.407,126.763c.772.831,1.471,1.706,2.281,2.513A86.108,86.108,0,0,0,1812.434,2242.324Z" transform="translate(-1595.558 -2059.797)" fill="#8d4c00" opacity="0.4"/>
          <g id="Group_233163" data-name="Group 233163" transform="translate(69.747 35.708)" opacity="0.5">
            <path id="Path_665612" data-name="Path 665612" d="M1631.564,2197.5a86.067,86.067,0,0,1,113.15-129.257,86.056,86.056,0,1,0-111.3,130.922C1632.806,2198.595,1632.158,2198.094,1631.564,2197.5Z" transform="translate(-1599.704 -2044.863)" fill="#fff" opacity="0.35"/>
            <ellipse id="Ellipse_23228" data-name="Ellipse 23228" cx="24.762" cy="14.99" rx="24.762" ry="14.99" transform="translate(46.023 26.929) rotate(-18.236)" fill="#fff" opacity="0.35"/>
            <path id="Path_665613" data-name="Path 665613" d="M1785.505,2259.8c-.923-2.8-5.426-3.839-10.056-2.313s-7.635,5.035-6.712,7.838,5.426,3.838,10.056,2.313S1786.429,2262.6,1785.505,2259.8Z" transform="translate(-1724.632 -2201.642)" fill="#fff" opacity="0.35"/>
          </g>
          <path id="Path_665614" data-name="Path 665614" d="M1717.579,2021.632a99.666,99.666,0,1,0,.311,140.949A99.666,99.666,0,0,0,1717.579,2021.632Zm-131.072,131.651a86.107,86.107,0,1,1,121.774-.269A86.107,86.107,0,0,1,1586.507,2153.283Z" transform="translate(-1491.405 -1970.488)" fill="#556c26"/>
        </g>
      </g>
    </g>
    <path id="Path_665616" data-name="Path 665616" d="M2.9,0V-21.609h8.891a11.912,11.912,0,0,1,4.924.926,7.14,7.14,0,0,1,3.164,2.655,7.427,7.427,0,0,1,1.111,4.106A7.427,7.427,0,0,1,19.88-9.817a7.14,7.14,0,0,1-3.164,2.655,11.912,11.912,0,0,1-4.924.926H5.124l1.79-1.883V0ZM6.915-7.687,5.124-9.631h6.483a6.093,6.093,0,0,0,4-1.127,3.9,3.9,0,0,0,1.343-3.164A3.893,3.893,0,0,0,15.6-17.1a6.154,6.154,0,0,0-4-1.111H5.124l1.79-1.976ZM30.654,0V-16.485h3.674v4.538L33.9-13.274a5.214,5.214,0,0,1,2.331-2.531,8.228,8.228,0,0,1,3.967-.864V-13a2.715,2.715,0,0,0-.463-.077q-.216-.015-.432-.015a4.746,4.746,0,0,0-3.488,1.281A5.136,5.136,0,0,0,34.513-8V0ZM56.893.216a9.135,9.135,0,0,1-4.507-1.1,8.189,8.189,0,0,1-3.118-3.01,8.329,8.329,0,0,1-1.142-4.353,8.307,8.307,0,0,1,1.142-4.368,8.111,8.111,0,0,1,3.118-2.979,9.239,9.239,0,0,1,4.507-1.08,9.394,9.394,0,0,1,4.553,1.08,8.005,8.005,0,0,1,3.118,2.964,8.373,8.373,0,0,1,1.127,4.384A8.417,8.417,0,0,1,64.565-3.89,8.047,8.047,0,0,1,61.447-.88,9.287,9.287,0,0,1,56.893.216Zm0-3.3A5.124,5.124,0,0,0,59.425-3.7a4.367,4.367,0,0,0,1.744-1.79A5.7,5.7,0,0,0,61.8-8.242a5.679,5.679,0,0,0-.633-2.763,4.391,4.391,0,0,0-1.744-1.775,5.061,5.061,0,0,0-2.5-.617,5.037,5.037,0,0,0-2.516.617,4.523,4.523,0,0,0-1.744,1.775,5.569,5.569,0,0,0-.648,2.763,5.591,5.591,0,0,0,.648,2.747A4.5,4.5,0,0,0,54.408-3.7,4.974,4.974,0,0,0,56.893-3.087ZM76.095,0V-17.411a5.675,5.675,0,0,1,1.528-4.152,5.842,5.842,0,0,1,4.368-1.559,8.335,8.335,0,0,1,1.929.216,4.088,4.088,0,0,1,1.528.679l-1.05,2.9a3,3,0,0,0-.988-.509A3.887,3.887,0,0,0,82.269-20a2.368,2.368,0,0,0-1.821.664,2.832,2.832,0,0,0-.617,1.991V-15.5l.123,1.729V0ZM73.378-13.274v-3.087h10.99v3.087ZM100.636.216a10.046,10.046,0,0,1-4.8-1.1,7.94,7.94,0,0,1-3.18-3.01A8.417,8.417,0,0,1,91.53-8.242a8.579,8.579,0,0,1,1.1-4.368,7.865,7.865,0,0,1,3.025-2.979,8.848,8.848,0,0,1,4.4-1.08,8.663,8.663,0,0,1,4.291,1.05,7.6,7.6,0,0,1,2.964,2.964,9.018,9.018,0,0,1,1.08,4.507q0,.247-.015.556t-.046.587H94.586V-9.57h11.7l-1.513.8a4.737,4.737,0,0,0-.587-2.5,4.517,4.517,0,0,0-1.682-1.7,4.8,4.8,0,0,0-2.454-.617,4.866,4.866,0,0,0-2.485.617A4.376,4.376,0,0,0,95.9-11.252a5.272,5.272,0,0,0-.6,2.578v.617a5.035,5.035,0,0,0,.679,2.624,4.528,4.528,0,0,0,1.914,1.76,6.269,6.269,0,0,0,2.84.617,6.853,6.853,0,0,0,2.5-.432A5.322,5.322,0,0,0,105.2-4.847l2.068,2.377A7.263,7.263,0,0,1,104.48-.478,10,10,0,0,1,100.636.216Zm22.72,0a14.424,14.424,0,0,1-3.967-.54,10.205,10.205,0,0,1-3.01-1.312l1.482-2.933A10.539,10.539,0,0,0,120.516-3.4a10.7,10.7,0,0,0,3.087.463,5.319,5.319,0,0,0,2.639-.494,1.5,1.5,0,0,0,.818-1.327,1.152,1.152,0,0,0-.556-1.034,4.322,4.322,0,0,0-1.451-.54q-.9-.185-1.991-.34t-2.192-.417a7.564,7.564,0,0,1-1.991-.772,4.125,4.125,0,0,1-1.451-1.374,4.171,4.171,0,0,1-.556-2.284,4.336,4.336,0,0,1,.9-2.732,5.715,5.715,0,0,1,2.516-1.79,10.553,10.553,0,0,1,3.843-.633,15.749,15.749,0,0,1,3.365.37,9.107,9.107,0,0,1,2.809,1.05l-1.482,2.933a7.814,7.814,0,0,0-2.362-.972,10.927,10.927,0,0,0-2.362-.262,5.078,5.078,0,0,0-2.609.525,1.537,1.537,0,0,0-.849,1.327,1.247,1.247,0,0,0,.556,1.111,4.533,4.533,0,0,0,1.451.587,18.369,18.369,0,0,0,1.991.355,17.637,17.637,0,0,1,2.176.417,9.178,9.178,0,0,1,1.991.756,3.835,3.835,0,0,1,1.466,1.343,4.107,4.107,0,0,1,.556,2.254,4.179,4.179,0,0,1-.911,2.686,5.863,5.863,0,0,1-2.578,1.775A11.227,11.227,0,0,1,123.357.216Zm22.072,0a14.424,14.424,0,0,1-3.967-.54,10.205,10.205,0,0,1-3.01-1.312l1.482-2.933A10.538,10.538,0,0,0,142.589-3.4a10.7,10.7,0,0,0,3.087.463,5.319,5.319,0,0,0,2.639-.494,1.5,1.5,0,0,0,.818-1.327,1.152,1.152,0,0,0-.556-1.034,4.322,4.322,0,0,0-1.451-.54q-.9-.185-1.991-.34t-2.192-.417a7.564,7.564,0,0,1-1.991-.772A4.125,4.125,0,0,1,139.5-9.23a4.171,4.171,0,0,1-.556-2.284,4.336,4.336,0,0,1,.9-2.732,5.715,5.715,0,0,1,2.516-1.79,10.553,10.553,0,0,1,3.843-.633,15.749,15.749,0,0,1,3.365.37,9.107,9.107,0,0,1,2.809,1.05l-1.482,2.933a7.814,7.814,0,0,0-2.362-.972,10.927,10.927,0,0,0-2.362-.262,5.078,5.078,0,0,0-2.609.525,1.537,1.537,0,0,0-.849,1.327,1.247,1.247,0,0,0,.556,1.111,4.533,4.533,0,0,0,1.451.587,18.368,18.368,0,0,0,1.991.355,17.637,17.637,0,0,1,2.176.417,9.178,9.178,0,0,1,1.991.756,3.835,3.835,0,0,1,1.466,1.343,4.107,4.107,0,0,1,.556,2.254,4.179,4.179,0,0,1-.911,2.686,5.863,5.863,0,0,1-2.578,1.775A11.227,11.227,0,0,1,145.429.216ZM162.407,0V-16.485h3.859V0Zm1.945-19.2a2.433,2.433,0,0,1-1.775-.679,2.205,2.205,0,0,1-.695-1.636,2.191,2.191,0,0,1,.695-1.652,2.465,2.465,0,0,1,1.775-.664,2.534,2.534,0,0,1,1.775.633,2.06,2.06,0,0,1,.695,1.59,2.355,2.355,0,0,1-.679,1.713A2.391,2.391,0,0,1,164.352-19.2ZM184.911.216A9.135,9.135,0,0,1,180.4-.88a8.189,8.189,0,0,1-3.118-3.01,8.329,8.329,0,0,1-1.142-4.353,8.307,8.307,0,0,1,1.142-4.368,8.111,8.111,0,0,1,3.118-2.979,9.239,9.239,0,0,1,4.507-1.08,9.394,9.394,0,0,1,4.553,1.08,8.005,8.005,0,0,1,3.118,2.964,8.373,8.373,0,0,1,1.127,4.384,8.417,8.417,0,0,1-1.127,4.353,8.047,8.047,0,0,1-3.118,3.01A9.287,9.287,0,0,1,184.911.216Zm0-3.3a5.124,5.124,0,0,0,2.531-.617,4.367,4.367,0,0,0,1.744-1.79,5.7,5.7,0,0,0,.633-2.747,5.679,5.679,0,0,0-.633-2.763,4.391,4.391,0,0,0-1.744-1.775,5.061,5.061,0,0,0-2.5-.617,5.037,5.037,0,0,0-2.516.617,4.523,4.523,0,0,0-1.744,1.775,5.569,5.569,0,0,0-.648,2.763,5.591,5.591,0,0,0,.648,2.747,4.5,4.5,0,0,0,1.744,1.79A4.974,4.974,0,0,0,184.911-3.087Zm28.03-13.583a7.861,7.861,0,0,1,3.535.772,5.656,5.656,0,0,1,2.454,2.362,8.277,8.277,0,0,1,.9,4.09V0h-3.859V-8.952a4.574,4.574,0,0,0-1.034-3.272,3.806,3.806,0,0,0-2.886-1.08,5.069,5.069,0,0,0-2.408.556,3.808,3.808,0,0,0-1.621,1.652,5.946,5.946,0,0,0-.571,2.763V0h-3.859V-16.485h3.674v4.445l-.648-1.358a5.843,5.843,0,0,1,2.516-2.423A8.225,8.225,0,0,1,212.941-16.67ZM241.064,0V-3.334l-.216-.71V-9.878a3.415,3.415,0,0,0-1.019-2.639,4.415,4.415,0,0,0-3.087-.942,8.866,8.866,0,0,0-2.732.432,6.711,6.711,0,0,0-2.269,1.2l-1.513-2.809a9.151,9.151,0,0,1,3.164-1.528,14.2,14.2,0,0,1,3.812-.509,8.155,8.155,0,0,1,5.541,1.713q1.96,1.713,1.96,5.294V0Zm-5.186.216a7.752,7.752,0,0,1-3.241-.633,5.008,5.008,0,0,1-2.145-1.76,4.465,4.465,0,0,1-.756-2.547,4.782,4.782,0,0,1,.664-2.5,4.475,4.475,0,0,1,2.176-1.76,10.343,10.343,0,0,1,4.013-.648h4.785v2.562h-4.507a4.02,4.02,0,0,0-2.655.633,2.047,2.047,0,0,0-.679,1.559,1.967,1.967,0,0,0,.833,1.667,3.821,3.821,0,0,0,2.315.617,5.014,5.014,0,0,0,2.547-.648,3.676,3.676,0,0,0,1.621-1.914L241.5-2.84A4.289,4.289,0,0,1,239.5-.587,7.364,7.364,0,0,1,235.878.216ZM255.82,0V-22.906h3.859V0Zm36.859.309a16.114,16.114,0,0,1-4.847-.725,10.579,10.579,0,0,1-3.674-1.868L285.548-5.4a11.242,11.242,0,0,0,3.21,1.7,11.642,11.642,0,0,0,3.92.679,8.43,8.43,0,0,0,2.747-.37,3.282,3.282,0,0,0,1.544-1,2.272,2.272,0,0,0,.494-1.435,1.982,1.982,0,0,0-.71-1.59,5.243,5.243,0,0,0-1.837-.957q-1.127-.355-2.5-.664t-2.747-.725a11.462,11.462,0,0,1-2.5-1.08,5.412,5.412,0,0,1-1.837-1.775,5.189,5.189,0,0,1-.71-2.84,5.85,5.85,0,0,1,.942-3.226,6.486,6.486,0,0,1,2.871-2.346,11.825,11.825,0,0,1,4.893-.88,15.384,15.384,0,0,1,3.859.494A11.164,11.164,0,0,1,300.519-20l-1.266,3.118a11.894,11.894,0,0,0-2.994-1.281,11.362,11.362,0,0,0-2.964-.417,7.591,7.591,0,0,0-2.7.4,3.3,3.3,0,0,0-1.513,1.05,2.43,2.43,0,0,0-.478,1.482,2,2,0,0,0,.695,1.59,4.9,4.9,0,0,0,1.821.942q1.127.34,2.516.664t2.763.725a11.408,11.408,0,0,1,2.5,1.05,5.143,5.143,0,0,1,1.821,1.76,5.215,5.215,0,0,1,.695,2.809,5.8,5.8,0,0,1-.942,3.2,6.476,6.476,0,0,1-2.886,2.346A11.936,11.936,0,0,1,292.678.309Zm22.6-12.935h10.743v3.3H315.275Zm.309,9.261h12.194V0H311.571V-21.609h15.775v3.365H315.584ZM348.553.309a12.684,12.684,0,0,1-4.661-.833,11.272,11.272,0,0,1-3.7-2.331,10.5,10.5,0,0,1-2.439-3.519,11.153,11.153,0,0,1-.864-4.43,11.153,11.153,0,0,1,.864-4.43,10.5,10.5,0,0,1,2.439-3.519,11.272,11.272,0,0,1,3.7-2.331,12.6,12.6,0,0,1,4.63-.833,12.563,12.563,0,0,1,4.646.833,11.31,11.31,0,0,1,3.689,2.331,10.5,10.5,0,0,1,2.439,3.519,11.152,11.152,0,0,1,.864,4.43,11.265,11.265,0,0,1-.864,4.445,10.3,10.3,0,0,1-2.439,3.519,11.444,11.444,0,0,1-3.689,2.315A12.476,12.476,0,0,1,348.553.309Zm-.031-3.519a8.072,8.072,0,0,0,3.025-.556,6.974,6.974,0,0,0,2.408-1.59,7.5,7.5,0,0,0,1.59-2.408,7.847,7.847,0,0,0,.571-3.041,7.847,7.847,0,0,0-.571-3.041,7.5,7.5,0,0,0-1.59-2.408,6.974,6.974,0,0,0-2.408-1.59,8.072,8.072,0,0,0-3.025-.556,7.954,7.954,0,0,0-3.01.556,7.172,7.172,0,0,0-2.408,1.59,7.371,7.371,0,0,0-1.605,2.408,7.847,7.847,0,0,0-.571,3.041,7.88,7.88,0,0,0,.571,3.025,7.451,7.451,0,0,0,1.59,2.423,6.973,6.973,0,0,0,2.408,1.59A8.072,8.072,0,0,0,348.522-3.21ZM395.29.309a12.6,12.6,0,0,1-4.584-.818,10.933,10.933,0,0,1-3.674-2.315,10.565,10.565,0,0,1-2.423-3.535,11.265,11.265,0,0,1-.864-4.445,11.265,11.265,0,0,1,.864-4.445,10.458,10.458,0,0,1,2.439-3.535,11.141,11.141,0,0,1,3.674-2.315,12.563,12.563,0,0,1,4.6-.818,12.513,12.513,0,0,1,4.847.911,9.6,9.6,0,0,1,3.7,2.7l-2.593,2.439a7.844,7.844,0,0,0-2.624-1.9,7.789,7.789,0,0,0-3.149-.633,8.364,8.364,0,0,0-3.1.556,7.215,7.215,0,0,0-2.439,1.574,7.161,7.161,0,0,0-1.605,2.408,7.963,7.963,0,0,0-.571,3.056,7.963,7.963,0,0,0,.571,3.056,7.161,7.161,0,0,0,1.605,2.408A7.214,7.214,0,0,0,392.4-3.766a8.364,8.364,0,0,0,3.1.556,7.789,7.789,0,0,0,3.149-.633,7.667,7.667,0,0,0,2.624-1.929l2.593,2.47a9.885,9.885,0,0,1-3.7,2.686A12.413,12.413,0,0,1,395.29.309ZM420.326.216a9.135,9.135,0,0,1-4.507-1.1A8.189,8.189,0,0,1,412.7-3.89a8.329,8.329,0,0,1-1.142-4.353A8.307,8.307,0,0,1,412.7-12.61a8.111,8.111,0,0,1,3.118-2.979,9.239,9.239,0,0,1,4.507-1.08,9.394,9.394,0,0,1,4.553,1.08A8.005,8.005,0,0,1,428-12.626a8.373,8.373,0,0,1,1.127,4.384A8.417,8.417,0,0,1,428-3.89a8.046,8.046,0,0,1-3.118,3.01A9.287,9.287,0,0,1,420.326.216Zm0-3.3a5.124,5.124,0,0,0,2.531-.617,4.367,4.367,0,0,0,1.744-1.79,5.7,5.7,0,0,0,.633-2.747,5.679,5.679,0,0,0-.633-2.763,4.391,4.391,0,0,0-1.744-1.775,5.061,5.061,0,0,0-2.5-.617,5.037,5.037,0,0,0-2.516.617,4.523,4.523,0,0,0-1.744,1.775,5.569,5.569,0,0,0-.648,2.763,5.591,5.591,0,0,0,.648,2.747,4.5,4.5,0,0,0,1.744,1.79A4.974,4.974,0,0,0,420.326-3.087ZM459.809-16.67a7.668,7.668,0,0,1,3.5.772,5.519,5.519,0,0,1,2.392,2.362,8.522,8.522,0,0,1,.864,4.09V0H462.71V-8.952a4.816,4.816,0,0,0-.957-3.272,3.477,3.477,0,0,0-2.747-1.08,4.431,4.431,0,0,0-2.238.556,3.768,3.768,0,0,0-1.513,1.636,6.133,6.133,0,0,0-.54,2.747V0h-3.859V-8.952a4.816,4.816,0,0,0-.957-3.272,3.477,3.477,0,0,0-2.747-1.08,4.431,4.431,0,0,0-2.238.556,3.768,3.768,0,0,0-1.513,1.636,6.132,6.132,0,0,0-.54,2.747V0H439V-16.485h3.674V-12.1l-.648-1.3a5.6,5.6,0,0,1,2.423-2.439,7.7,7.7,0,0,1,3.627-.833,7.092,7.092,0,0,1,4.029,1.142,5.5,5.5,0,0,1,2.269,3.457l-1.513-.525a6.36,6.36,0,0,1,2.655-2.964A8.178,8.178,0,0,1,459.809-16.67ZM486.82.216a7.35,7.35,0,0,1-3.658-.926A6.583,6.583,0,0,1,480.538-3.5a10.215,10.215,0,0,1-.972-4.739A10.479,10.479,0,0,1,480.507-13a6.346,6.346,0,0,1,2.578-2.763,7.55,7.55,0,0,1,3.735-.911,8.64,8.64,0,0,1,4.306,1.05,7.8,7.8,0,0,1,2.964,2.933,8.682,8.682,0,0,1,1.1,4.445,8.767,8.767,0,0,1-1.1,4.461,7.766,7.766,0,0,1-2.964,2.948A8.64,8.64,0,0,1,486.82.216Zm-9.138,5.773V-16.485h3.674v3.89l-.123,4.384.309,4.384V5.989Zm8.705-9.076a4.974,4.974,0,0,0,2.485-.617,4.5,4.5,0,0,0,1.744-1.79,5.591,5.591,0,0,0,.648-2.747,5.569,5.569,0,0,0-.648-2.763,4.523,4.523,0,0,0-1.744-1.775,4.974,4.974,0,0,0-2.485-.617,5.061,5.061,0,0,0-2.5.617,4.492,4.492,0,0,0-1.76,1.775,5.569,5.569,0,0,0-.648,2.763,5.591,5.591,0,0,0,.648,2.747,4.467,4.467,0,0,0,1.76,1.79A5.061,5.061,0,0,0,486.388-3.087ZM514.973,0V-3.334l-.216-.71V-9.878a3.415,3.415,0,0,0-1.019-2.639,4.415,4.415,0,0,0-3.087-.942,8.866,8.866,0,0,0-2.732.432,6.711,6.711,0,0,0-2.269,1.2l-1.513-2.809A9.151,9.151,0,0,1,507.3-16.16a14.2,14.2,0,0,1,3.812-.509,8.155,8.155,0,0,1,5.541,1.713q1.96,1.713,1.96,5.294V0Zm-5.186.216a7.752,7.752,0,0,1-3.241-.633,5.008,5.008,0,0,1-2.145-1.76,4.465,4.465,0,0,1-.756-2.547,4.782,4.782,0,0,1,.664-2.5,4.475,4.475,0,0,1,2.176-1.76,10.343,10.343,0,0,1,4.013-.648h4.785v2.562h-4.507a4.02,4.02,0,0,0-2.655.633,2.047,2.047,0,0,0-.679,1.559,1.967,1.967,0,0,0,.833,1.667,3.821,3.821,0,0,0,2.315.617,5.014,5.014,0,0,0,2.547-.648,3.676,3.676,0,0,0,1.621-1.914l.648,2.315a4.289,4.289,0,0,1-1.991,2.254A7.364,7.364,0,0,1,509.787.216Zm29.3-16.886a7.861,7.861,0,0,1,3.535.772,5.656,5.656,0,0,1,2.454,2.362,8.276,8.276,0,0,1,.9,4.09V0h-3.859V-8.952a4.574,4.574,0,0,0-1.034-3.272,3.806,3.806,0,0,0-2.886-1.08,5.069,5.069,0,0,0-2.408.556,3.808,3.808,0,0,0-1.621,1.652,5.946,5.946,0,0,0-.571,2.763V0h-3.859V-16.485H533.4v4.445l-.648-1.358a5.843,5.843,0,0,1,2.516-2.423A8.225,8.225,0,0,1,539.083-16.67ZM558.1,6.2a7.575,7.575,0,0,1-2.408-.4,5.711,5.711,0,0,1-2.007-1.111l1.544-2.84a4.666,4.666,0,0,0,1.327.833,3.9,3.9,0,0,0,1.513.309,2.615,2.615,0,0,0,1.7-.525,4.748,4.748,0,0,0,1.2-1.76l.957-2.161.309-.463,6.236-14.571h3.7L564.458,1.327a10.752,10.752,0,0,1-1.713,2.933,5.206,5.206,0,0,1-2.1,1.513A7.23,7.23,0,0,1,558.1,6.2Zm3.4-5.618-7.44-17.071h4.013l6.05,14.231Z" transform="translate(-4543.902 -13591.5)" fill="#586e2a"/>
  </g>
</svg>
